HIERARCHY
ROOT Hips
{
	OFFSET 0.000000 97.167313 0.000000
	CHANNELS 6 Xposition Yposition Zposition Xrotation Yrotation Zrotation
	JOINT Spine
	{
		OFFSET 0.000000 13.784798 0.064400
		CHANNELS 3 Xrotation Yrotation Zrotation
		JOINT Spine1
		{
			OFFSET 0.000000 12.037903 0.404700
			CHANNELS 3 Xrotation Yrotation Zrotation
			JOINT Spine2
			{
				OFFSET 0.000000 17.795601 0.420200
				CHANNELS 3 Xrotation Yrotation Zrotation
				JOINT Neck
				{
					OFFSET 0.000000 39.131302 11.954600
					CHANNELS 3 Xrotation Yrotation Zrotation
					JOINT Head
					{
						OFFSET 0.000000 14.456192 15.627699
						CHANNELS 3 Xrotation Yrotation Zrotation
						JOINT HeadTop_End
						{
							OFFSET 0.000000 15.703506 7.603401
							CHANNELS 3 Xrotation Yrotation Zrotation
							End Site
							{
								OFFSET 0.000000 17.447403 0.000000
							}
						}
					}
				}
				JOINT LeftShoulder
				{
					OFFSET 17.399500 24.608795 1.168800
					CHANNELS 3 Xrotation Yrotation Zrotation
					JOINT LeftArm
					{
						OFFSET 18.980635 5.765305 1.818600
						CHANNELS 3 Xrotation Yrotation Zrotation
						JOINT LeftForeArm
						{
							OFFSET 49.290169 0.000000 0.000000
							CHANNELS 3 Xrotation Yrotation Zrotation
							JOINT LeftHand
							{
								OFFSET 31.562012 0.000000 0.000000
								CHANNELS 3 Xrotation Yrotation Zrotation
								JOINT LeftHandThumb1
								{
									OFFSET 6.133995 -4.388519 7.076070
									CHANNELS 3 Xrotation Yrotation Zrotation
									JOINT LeftHandThumb2
									{
										OFFSET 6.037666 -3.485840 3.485847
										CHANNELS 3 Xrotation Yrotation Zrotation
										JOINT LeftHandThumb3
										{
											OFFSET 6.496506 -3.750763 3.750761
											CHANNELS 3 Xrotation Yrotation Zrotation
											JOINT LeftHandThumb4
											{
												OFFSET 5.616882 -3.242905 3.242910
												CHANNELS 3 Xrotation Yrotation Zrotation
												End Site
												{
													OFFSET -1.254608 7.132141 0.375429
												}
											}
										}
									}
								}
								JOINT LeftHandPinky1
								{
									OFFSET 18.920792 -0.453171 -11.426712
									CHANNELS 3 Xrotation Yrotation Zrotation
									JOINT LeftHandPinky2
									{
										OFFSET 4.919586 0.000000 0.000000
										CHANNELS 3 Xrotation Yrotation Zrotation
										JOINT LeftHandPinky3
										{
											OFFSET 5.233047 0.000000 0.000000
											CHANNELS 3 Xrotation Yrotation Zrotation
											JOINT LeftHandPinky4
											{
												OFFSET 5.571716 0.000000 0.000000
												CHANNELS 3 Xrotation Yrotation Zrotation
												End Site
												{
													OFFSET -3.459808 4.342407 -0.466164
												}
											}
										}
									}
								}
								JOINT LeftHandRing1
								{
									OFFSET 22.726120 -0.094986 -6.500475
									CHANNELS 3 Xrotation Yrotation Zrotation
									JOINT LeftHandRing2
									{
										OFFSET 6.408615 0.000000 0.000000
										CHANNELS 3 Xrotation Yrotation Zrotation
										JOINT LeftHandRing3
										{
											OFFSET 6.150223 0.000000 0.000000
											CHANNELS 3 Xrotation Yrotation Zrotation
											JOINT LeftHandRing4
											{
												OFFSET 6.145386 0.000000 0.000000
												CHANNELS 3 Xrotation Yrotation Zrotation
												End Site
												{
													OFFSET -3.671402 4.923981 -0.202372
												}
											}
										}
									}
								}
								JOINT LeftHandMiddle1
								{
									OFFSET 23.373947 0.000000 0.000001
									CHANNELS 3 Xrotation Yrotation Zrotation
									JOINT LeftHandMiddle2
									{
										OFFSET 6.996567 0.000000 0.000000
										CHANNELS 3 Xrotation Yrotation Zrotation
										JOINT LeftHandMiddle3
										{
											OFFSET 7.015945 0.000000 0.000000
											CHANNELS 3 Xrotation Yrotation Zrotation
											JOINT LeftHandMiddle4
											{
												OFFSET 7.721573 0.000000 0.000000
												CHANNELS 3 Xrotation Yrotation Zrotation
												End Site
												{
													OFFSET -4.651108 6.158463 0.251582
												}
											}
										}
									}
								}
								JOINT LeftHandIndex1
								{
									OFFSET 21.310577 -0.490082 6.209344
									CHANNELS 3 Xrotation Yrotation Zrotation
									JOINT LeftHandIndex2
									{
										OFFSET 7.536453 0.000000 0.000000
										CHANNELS 3 Xrotation Yrotation Zrotation
										JOINT LeftHandIndex3
										{
											OFFSET 7.512344 0.000000 0.000000
											CHANNELS 3 Xrotation Yrotation Zrotation
											JOINT LeftHandIndex4
											{
												OFFSET 10.212402 0.000000 0.000001
												CHANNELS 3 Xrotation Yrotation Zrotation
												End Site
												{
													OFFSET -5.180801 8.690506 1.388433
												}
											}
										}
									}
								}
							}
						}
					}
				}
				JOINT RightShoulder
				{
					OFFSET -17.399500 24.608795 1.168800
					CHANNELS 3 Xrotation Yrotation Zrotation
					JOINT RightArm
					{
						OFFSET -18.980635 5.765305 1.818600
						CHANNELS 3 Xrotation Yrotation Zrotation
						JOINT RightForeArm
						{
							OFFSET -49.290169 0.000000 0.000000
							CHANNELS 3 Xrotation Yrotation Zrotation
							JOINT RightHand
							{
								OFFSET -31.562012 0.000000 0.000000
								CHANNELS 3 Xrotation Yrotation Zrotation
								JOINT RightHandThumb1
								{
									OFFSET -6.133995 -4.388519 7.076070
									CHANNELS 3 Xrotation Yrotation Zrotation
									JOINT RightHandThumb2
									{
										OFFSET -6.037666 -3.485840 3.485847
										CHANNELS 3 Xrotation Yrotation Zrotation
										JOINT RightHandThumb3
										{
											OFFSET -6.496506 -3.750763 3.750761
											CHANNELS 3 Xrotation Yrotation Zrotation
											JOINT RightHandThumb4
											{
												OFFSET -5.616882 -3.242905 3.242910
												CHANNELS 3 Xrotation Yrotation Zrotation
												End Site
												{
													OFFSET 1.254608 7.132141 0.375429
												}
											}
										}
									}
								}
								JOINT RightHandIndex1
								{
									OFFSET -21.310577 -0.490082 6.209344
									CHANNELS 3 Xrotation Yrotation Zrotation
									JOINT RightHandIndex2
									{
										OFFSET -7.536453 0.000000 0.000000
										CHANNELS 3 Xrotation Yrotation Zrotation
										JOINT RightHandIndex3
										{
											OFFSET -7.512344 0.000000 0.000000
											CHANNELS 3 Xrotation Yrotation Zrotation
											JOINT RightHandIndex4
											{
												OFFSET -10.212402 0.000000 0.000001
												CHANNELS 3 Xrotation Yrotation Zrotation
												End Site
												{
													OFFSET 5.180801 8.690506 1.388433
												}
											}
										}
									}
								}
								JOINT RightHandMiddle1
								{
									OFFSET -23.373947 0.000000 0.000001
									CHANNELS 3 Xrotation Yrotation Zrotation
									JOINT RightHandMiddle2
									{
										OFFSET -6.996567 0.000000 0.000000
										CHANNELS 3 Xrotation Yrotation Zrotation
										JOINT RightHandMiddle3
										{
											OFFSET -7.015945 0.000000 0.000000
											CHANNELS 3 Xrotation Yrotation Zrotation
											JOINT RightHandMiddle4
											{
												OFFSET -7.721573 0.000000 0.000000
												CHANNELS 3 Xrotation Yrotation Zrotation
												End Site
												{
													OFFSET 4.651108 6.158463 0.251582
												}
											}
										}
									}
								}
								JOINT RightHandRing1
								{
									OFFSET -22.726120 -0.094986 -6.500475
									CHANNELS 3 Xrotation Yrotation Zrotation
									JOINT RightHandRing2
									{
										OFFSET -6.408615 0.000000 0.000000
										CHANNELS 3 Xrotation Yrotation Zrotation
										JOINT RightHandRing3
										{
											OFFSET -6.150223 0.000000 0.000000
											CHANNELS 3 Xrotation Yrotation Zrotation
											JOINT RightHandRing4
											{
												OFFSET -6.145386 0.000000 0.000000
												CHANNELS 3 Xrotation Yrotation Zrotation
												End Site
												{
													OFFSET 3.671402 4.923981 -0.202372
												}
											}
										}
									}
								}
								JOINT RightHandPinky1
								{
									OFFSET -18.920792 -0.453171 -11.426712
									CHANNELS 3 Xrotation Yrotation Zrotation
									JOINT RightHandPinky2
									{
										OFFSET -4.919586 0.000000 0.000000
										CHANNELS 3 Xrotation Yrotation Zrotation
										JOINT RightHandPinky3
										{
											OFFSET -5.233047 0.000000 0.000000
											CHANNELS 3 Xrotation Yrotation Zrotation
											JOINT RightHandPinky4
											{
												OFFSET -5.571716 0.000000 0.000000
												CHANNELS 3 Xrotation Yrotation Zrotation
												End Site
												{
													OFFSET 3.459808 4.342407 -0.466164
												}
											}
										}
									}
								}
							}
						}
					}
				}
			}
		}
	}
	JOINT LeftUpLeg
	{
		OFFSET 19.899099 -7.885101 -3.429500
		CHANNELS 3 Xrotation Yrotation Zrotation
		JOINT LeftLeg
		{
			OFFSET 1.745560 -36.997807 10.304700
			CHANNELS 3 Xrotation Yrotation Zrotation
			JOINT LeftFoot
			{
				OFFSET -1.745558 -29.803308 -13.615400
				CHANNELS 3 Xrotation Yrotation Zrotation
				JOINT LeftToeBase
				{
					OFFSET 1.181900 -18.539904 15.226099
					CHANNELS 3 Xrotation Yrotation Zrotation
					JOINT LeftToe_End
					{
						OFFSET -0.863701 1.402801 16.534700
						CHANNELS 3 Xrotation Yrotation Zrotation
						End Site
						{
							OFFSET 0.000000 16.616566 0.000000
						}
					}
				}
			}
		}
	}
	JOINT RightUpLeg
	{
		OFFSET -19.899099 -7.885101 -3.429500
		CHANNELS 3 Xrotation Yrotation Zrotation
		JOINT RightLeg
		{
			OFFSET -1.745560 -36.997807 10.304700
			CHANNELS 3 Xrotation Yrotation Zrotation
			JOINT RightFoot
			{
				OFFSET 1.745558 -29.803308 -13.615400
				CHANNELS 3 Xrotation Yrotation Zrotation
				JOINT RightToeBase
				{
					OFFSET -1.181900 -18.539904 15.226099
					CHANNELS 3 Xrotation Yrotation Zrotation
					JOINT RightToe_End
					{
						OFFSET 0.863701 1.402801 16.534700
						CHANNELS 3 Xrotation Yrotation Zrotation
						End Site
						{
							OFFSET 0.000000 16.616566 0.000000
						}
					}
				}
			}
		}
	}
}
MOTION
Frames: 6
Frame Time: 0.033333
6.275507 35.254967 3.209831 42.389120 6.913660 0.099510 7.148268 0.109544 -0.102152 14.301032 0.134017 -1.811647 14.301037 0.134018 -1.811645 -10.889000 -2.676979 -2.298645 -39.547355 -9.657590 2.704437 0.000001 -0.000000 -0.000000 -1.181596 -0.757487 -8.687371 -20.068522 -41.893027 -35.976956 15.277964 -83.419703 11.325191 61.114784 3.227368 9.372440 11.619534 -14.156082 8.390023 4.834487 20.282151 1.864116 0.000007 0.000000 -0.000002 -0.000000 0.000003 0.000000 -3.934371 30.713305 -25.292903 0.393453 -6.598580 -44.304360 0.000011 -0.000007 -0.000003 -0.000000 0.000001 -0.000004 0.064641 9.918008 -18.795700 0.053173 -3.372775 -38.324939 0.000000 0.000008 -0.000001 0.000001 -0.000001 0.000001 1.054676 -1.920949 -3.876278 -2.162226 -2.126239 -32.682278 -0.000008 0.000005 0.000004 -0.000000 -0.000003 0.000004 5.903325 -9.781428 4.265883 -0.935374 -0.200417 -27.414469 -0.000003 -0.000003 -0.000010 -0.000000 -0.000000 0.000001 6.866393 27.557723 18.918420 -38.383761 22.922330 20.627875 2.112940 47.130904 -2.168538 44.347056 -14.262579 -67.651931 -34.809444 16.146675 -4.850148 -1.140721 -0.439424 -0.710211 0.000004 0.000000 0.000003 0.000002 -0.000001 0.000001 -1.594989 9.245038 -0.284612 0.222146 -1.530285 12.477139 -0.000001 0.000002 0.000005 -0.000001 -0.000003 -0.000001 -0.898358 -1.399136 2.742626 -0.829803 0.647915 17.750113 -0.000001 -0.000001 -0.000002 -0.000000 -0.000000 -0.000004 1.805928 -13.733700 7.289081 0.042220 2.463542 19.117711 -0.000002 -0.000002 -0.000002 -0.000000 -0.000000 -0.000003 6.811241 -32.367751 14.558248 -0.571572 6.638141 21.208692 0.000005 0.000000 0.000000 -0.000000 0.000001 -0.000001 -63.606546 -3.791210 70.567138 109.501886 -36.157727 -25.375491 -45.357654 -34.674453 -10.477090 -31.337687 -0.700968 -1.777435 -0.000001 -0.000002 0.000000 -86.666378 -23.115558 -44.426740 136.478163 22.705299 10.775592 -51.323619 36.317875 -37.904541 -35.626905 0.463901 -1.506714 -0.000000 0.000000 0.000000 
6.279646 35.240753 3.206223 42.388786 6.921673 0.118393 7.144204 0.115293 -0.105432 14.293148 0.142781 -1.825536 14.293187 0.142784 -1.825536 -10.943805 -2.648139 -2.297393 -39.567200 -9.625915 2.699419 -0.000001 -0.000000 0.000000 -1.186023 -0.735723 -8.719352 -20.058853 -41.864859 -35.919777 15.229078 -83.447085 11.287633 61.071262 3.235842 9.473314 11.629177 -14.087447 8.426344 4.854902 20.350591 1.889057 0.000009 -0.000001 -0.000005 -0.000002 0.000001 -0.000002 -3.918068 30.723502 -25.328124 0.394572 -6.594875 -44.316286 0.000012 -0.000014 -0.000002 0.000001 0.000002 -0.000002 0.063934 9.919305 -18.826095 0.053501 -3.368368 -38.345850 -0.000000 0.000012 -0.000001 0.000001 -0.000001 0.000003 1.056381 -1.913802 -3.897706 -2.161565 -2.120673 -32.700272 -0.000002 0.000007 0.000000 -0.000000 0.000000 0.000004 5.907337 -9.766317 4.219887 -0.933059 -0.193931 -27.473442 -0.000002 -0.000001 -0.000010 -0.000001 -0.000001 0.000003 6.867877 27.575017 18.928785 -38.347373 22.835991 20.600095 2.088561 47.220267 -2.181098 44.359097 -14.285759 -67.612329 -34.809438 16.146670 -4.850151 -1.124807 -0.428458 -0.743231 0.000003 -0.000000 0.000001 0.000002 -0.000002 0.000001 -1.575327 9.263734 -0.399379 0.222143 -1.530294 12.477139 -0.000002 0.000004 0.000004 -0.000001 -0.000001 -0.000001 -0.900590 -1.393058 2.664919 -0.829651 0.647448 17.742183 -0.000001 -0.000001 -0.000007 0.000001 -0.000000 -0.000004 1.804125 -13.729806 7.266116 0.042725 2.462087 19.103392 -0.000003 -0.000003 0.000001 -0.000000 -0.000002 -0.000005 6.797602 -32.398924 14.500633 -0.575792 6.650139 21.386992 0.000008 0.000001 -0.000001 -0.000002 0.000001 0.000004 -63.594696 -3.761475 70.574535 109.495418 -36.191472 -25.406098 -45.349256 -34.698788 -10.438607 -31.351422 -0.700558 -1.776821 0.000001 0.000002 -0.000000 -86.953144 -23.029900 -44.581495 136.479119 22.702005 10.773945 -51.006849 36.256598 -38.031767 -35.600251 0.463208 -1.505605 0.000000 -0.000000 -0.000000 
6.285952 35.230972 3.201572 42.367517 6.908745 0.109147 7.147460 0.114658 -0.105735 14.299717 0.145539 -1.827492 14.299711 0.145538 -1.827491 -10.989066 -2.625988 -2.296144 -39.649801 -9.604000 2.703179 0.000002 0.000000 0.000000 -1.183195 -0.724133 -8.752474 -20.097770 -41.831716 -35.904600 15.047294 -83.472473 11.139792 61.032480 3.342088 9.504248 11.648757 -13.931169 8.507572 4.948619 20.498397 1.949755 0.000008 -0.000000 -0.000003 -0.000001 0.000002 0.000000 -3.909322 30.736551 -25.373806 0.402278 -6.584984 -44.354982 0.000013 -0.000011 -0.000004 -0.000000 0.000002 0.000001 0.066957 9.928398 -18.862073 0.060914 -3.355942 -38.397100 0.000002 0.000011 -0.000001 -0.000002 0.000000 0.000005 1.064931 -1.884015 -3.989308 -2.155764 -2.107356 -32.784044 -0.000005 0.000001 0.000002 0.000001 0.000001 0.000006 5.911564 -9.729854 4.123326 -0.923980 -0.175046 -27.593993 -0.000002 0.000002 -0.000007 -0.000001 0.000000 -0.000002 6.874112 27.592610 18.905586 -38.351362 22.823057 20.610321 2.072523 47.209923 -2.187100 44.358582 -14.268538 -67.607425 -34.809441 16.146671 -4.850150 -1.119330 -0.425324 -0.747325 0.000004 0.000002 0.000003 0.000001 -0.000002 0.000001 -1.575695 9.262572 -0.410053 0.222143 -1.530281 12.477134 -0.000002 0.000000 0.000003 -0.000000 -0.000003 -0.000002 -0.901284 -1.390471 2.655355 -0.829614 0.647334 17.740003 -0.000001 -0.000002 -0.000005 0.000000 0.000000 -0.000004 1.804037 -13.728054 7.281638 0.042955 2.461416 19.096862 -0.000003 -0.000000 -0.000002 0.000001 0.000000 -0.000002 6.796364 -32.403158 14.495263 -0.576375 6.651817 21.414540 0.000006 -0.000001 0.000002 -0.000001 -0.000001 -0.000001 -63.575613 -3.741647 70.666653 109.484217 -36.256700 -25.457741 -45.293156 -34.758440 -10.361406 -31.398632 -0.699100 -1.774998 0.000001 0.000001 0.000000 -87.070029 -23.038182 -44.631273 136.486372 22.676057 10.759020 -50.869545 36.232951 -38.094431 -35.587201 0.462857 -1.505079 -0.000000 0.000000 -0.000000 
6.290968 35.226974 3.195911 42.326238 6.894848 0.100237 7.160015 0.117131 -0.107870 14.324947 0.154777 -1.832454 14.324952 0.154776 -1.832450 -11.014570 -2.616304 -2.272765 -39.748218 -9.591863 2.721862 0.000000 -0.000000 -0.000000 -1.178327 -0.722860 -8.782664 -20.146896 -41.796421 -35.880889 15.048911 -83.490088 11.189878 61.036865 3.402396 9.469229 11.679966 -13.677179 8.639285 5.077765 20.742052 2.045922 0.000006 -0.000001 -0.000001 0.000001 -0.000001 -0.000004 -3.904393 30.750809 -25.446119 0.417660 -6.568611 -44.428871 0.000012 -0.000010 0.000001 0.000001 -0.000001 0.000001 0.077440 9.948543 -18.946217 0.076388 -3.335534 -38.491224 0.000003 0.000009 0.000001 0.000001 -0.000001 0.000005 1.075804 -1.844009 -4.135747 -2.142926 -2.084639 -32.922611 -0.000008 0.000005 0.000007 0.000002 0.000001 0.000009 5.911427 -9.678218 3.934291 -0.907035 -0.142395 -27.782991 -0.000004 -0.000003 -0.000010 -0.000000 0.000001 -0.000001 6.878195 27.596058 18.881935 -38.358001 22.802918 20.607159 2.046246 47.227698 -2.190807 44.346711 -14.254782 -67.598287 -34.809444 16.146673 -4.850149 -1.133009 -0.432093 -0.748648 0.000004 -0.000000 0.000002 0.000000 -0.000001 -0.000001 -1.587601 9.253276 -0.359935 0.222146 -1.530312 12.477132 -0.000003 0.000003 0.000001 -0.000000 -0.000002 0.000001 -0.900997 -1.390221 2.685766 -0.829654 0.647477 17.742528 -0.000002 -0.000001 -0.000004 0.000001 -0.000000 -0.000004 1.805753 -13.731799 7.305454 0.043120 2.460974 19.092387 -0.000004 -0.000001 -0.000002 0.000001 -0.000000 -0.000005 6.802980 -32.391510 14.521172 -0.574701 6.647048 21.343636 0.000006 0.000001 -0.000003 0.000000 -0.000001 0.000004 -63.549132 -3.723408 70.751034 109.477496 -36.312523 -25.497354 -45.234454 -34.811060 -10.284856 -31.473645 -0.696776 -1.772114 0.000000 0.000001 0.000000 -87.114248 -23.055537 -44.649657 136.494487 22.646522 10.742001 -50.796045 36.217051 -38.122762 -35.595862 0.463094 -1.505429 0.000000 0.000000 -0.000000 
6.294111 35.226944 3.190540 42.292292 6.888501 0.092640 7.165507 0.119628 -0.109575 14.336138 0.162521 -1.835516 14.336127 0.162522 -1.835516 -11.019790 -2.609980 -2.241728 -39.813087 -9.586599 2.750705 -0.000000 0.000000 0.000000 -1.174116 -0.737397 -8.808575 -20.169520 -41.762321 -35.849791 15.050108 -83.448048 11.226633 61.063237 3.378692 9.422126 11.722581 -13.330710 8.819170 5.205890 21.081785 2.172487 0.000007 0.000003 -0.000004 -0.000001 0.000001 0.000001 -3.896512 30.768134 -25.554777 0.440366 -6.546176 -44.541709 0.000010 -0.000008 -0.000003 -0.000000 0.000003 -0.000000 0.096048 9.980815 -19.099005 0.099317 -3.308011 -38.632510 0.000001 0.000010 0.000003 -0.000001 0.000000 -0.000000 1.083986 -1.803359 -4.318182 -2.122675 -2.052590 -33.104274 -0.000005 0.000006 0.000009 0.000001 -0.000000 0.000001 5.905747 -9.618553 3.648060 -0.882505 -0.096922 -28.040336 -0.000004 -0.000003 -0.000012 -0.000003 0.000003 0.000002 6.879442 27.592434 18.868456 -38.377808 22.821037 20.625643 2.012671 47.153355 -2.172546 44.348230 -14.218255 -67.620102 -34.809444 16.146673 -4.850150 -1.162460 -0.445336 -0.765345 0.000007 0.000001 0.000002 0.000003 0.000000 -0.000000 -1.597967 9.248413 -0.313648 0.222142 -1.530279 12.477136 -0.000003 0.000001 0.000006 -0.000001 -0.000003 -0.000001 -0.900880 -1.389374 2.714139 -0.829736 0.647732 17.746592 -0.000001 -0.000001 -0.000004 0.000001 0.000000 -0.000004 1.808280 -13.740908 7.303146 0.043373 2.460168 19.085031 -0.000003 -0.000003 0.000001 0.000000 -0.000000 -0.000003 6.809841 -32.382668 14.544300 -0.573173 6.642680 21.273143 0.000007 -0.000002 0.000002 -0.000000 -0.000001 0.000000 -63.543879 -3.719632 70.794323 109.479996 -36.341941 -25.512181 -45.186086 -34.835447 -10.228173 -31.563581 -0.694007 -1.768681 -0.000000 -0.000000 -0.000000 -87.116700 -23.072553 -44.652037 136.500648 22.624430 10.729233 -50.774363 36.209384 -38.126041 -35.620885 0.463743 -1.506452 -0.000000 0.000000 0.000000 
6.295894 35.227402 3.187027 42.284465 6.882224 0.080141 7.165668 0.120067 -0.114226 14.336514 0.165536 -1.842787 14.336506 0.165535 -1.842786 -11.023152 -2.594924 -2.233277 -39.826570 -9.581442 2.773061 0.000000 -0.000000 0.000000 -1.170263 -0.760839 -8.824555 -20.181192 -41.751908 -35.832419 14.923654 -83.421984 11.115079 61.052800 3.354148 9.383275 11.774456 -12.910488 9.037734 5.322003 21.497457 2.325830 0.000008 -0.000000 -0.000004 -0.000000 -0.000000 -0.000001 -3.880416 30.792392 -25.698930 0.469002 -6.518432 -44.686451 0.000014 -0.000012 -0.000002 -0.000001 0.000002 -0.000005 0.118425 10.021932 -19.303890 0.128232 -3.274378 -38.812898 0.000001 0.000009 -0.000001 -0.000002 -0.000000 0.000008 1.087576 -1.762365 -4.532571 -2.096256 -2.013458 -33.326016 -0.000002 0.000004 0.000007 -0.000000 0.000000 0.000006 5.898154 -9.553177 3.301700 -0.851688 -0.041453 -28.359850 -0.000003 -0.000001 -0.000013 0.000000 0.000003 0.000001 6.878742 27.591497 18.864762 -38.392708 22.856323 20.637791 1.968545 47.055970 -2.133146 44.337630 -14.175653 -67.663419 -34.809441 16.146671 -4.850149 -1.177914 -0.451120 -0.787206 0.000005 0.000002 0.000002 0.000001 0.000000 -0.000000 -1.599992 9.252703 -0.306098 0.222141 -1.530284 12.477144 -0.000001 0.000007 0.000006 -0.000001 -0.000003 -0.000002 -0.901818 -1.384934 2.719877 -0.829799 0.647949 17.750019 -0.000001 -0.000001 -0.000004 -0.000000 0.000000 -0.000004 1.810569 -13.750218 7.271845 0.043622 2.459502 19.078105 -0.000005 -0.000004 0.000001 -0.000000 0.000000 -0.000005 6.810766 -32.388047 14.541872 -0.573350 6.643100 21.272720 0.000008 0.000002 -0.000008 0.000002 -0.000000 0.000002 -63.557560 -3.730660 70.819588 109.481505 -36.361950 -25.520964 -45.151509 -34.838275 -10.190438 -31.628547 -0.691982 -1.766157 -0.000000 -0.000002 -0.000000 -87.079373 -23.099085 -44.615011 136.505661 22.606096 10.718615 -50.826064 36.207652 -38.096381 -35.633537 0.464088 -1.506990 0.000000 0.000000 0.000000 
